<?xml version="1.0" encoding="UTF-8"?>
<svg xmlns="http://www.w3.org/2000/svg" xmlns:xlink="http://www.w3.org/1999/xlink" viewBox="0 0 100 100" width="100px" height="100px">
<g id="surface28652409">
<path style=" stroke:none;fill-rule:nonzero;fill:rgb(100%,100%,100%);fill-opacity:1;" d="M 36.078125 49.941406 C 36.539062 49.460938 37 49 37.480469 48.519531 C 37.941406 48.039062 38.421875 47.558594 38.878906 47.078125 L 24.519531 32.519531 C 23.480469 31.460938 22.078125 30.859375 20.601562 30.859375 C 19.121094 30.859375 17.71875 31.460938 16.679688 32.519531 L 3.621094 45.78125 C 1.460938 47.941406 1.460938 51.480469 3.621094 53.660156 L 19.160156 69.421875 C 19.28125 68.660156 19.5 67.941406 19.800781 67.238281 C 20.078125 66.621094 20.421875 66.019531 20.859375 65.460938 C 21.101562 65.101562 21.398438 64.761719 21.71875 64.421875 C 24.738281 61.339844 27.761719 58.300781 30.800781 55.261719 C 32.558594 53.480469 34.320312 51.71875 36.078125 49.941406 Z M 96.421875 29.058594 L 83.179688 15.601562 C 81.140625 13.539062 77.558594 13.539062 75.5 15.601562 L 42.601562 49.019531 C 42.300781 49.320312 42.019531 49.621094 41.699219 49.921875 L 41.699219 49.941406 C 41.238281 50.421875 40.761719 50.898438 40.300781 51.359375 L 40.28125 51.359375 L 38.878906 52.78125 L 36.359375 55.339844 L 33.621094 58.078125 C 30.601562 61.121094 27.578125 64.160156 24.578125 67.21875 C 24.238281 67.558594 23.960938 67.941406 23.71875 68.359375 C 23.339844 69.019531 23.101562 69.761719 23.019531 70.5 C 22.980469 70.960938 23 71.421875 23.078125 71.859375 C 23.121094 72.121094 23.179688 72.378906 23.261719 72.640625 C 23.300781 72.800781 23.359375 72.980469 23.441406 73.140625 C 23.5 73.300781 23.578125 73.460938 23.660156 73.621094 C 23.78125 73.878906 23.941406 74.140625 24.140625 74.378906 C 24.238281 74.519531 24.359375 74.640625 24.480469 74.78125 L 24.820312 75.160156 L 37.761719 88.300781 L 37.859375 88.398438 C 37.980469 88.519531 38.121094 88.640625 38.261719 88.761719 C 38.519531 88.960938 38.78125 89.140625 39.058594 89.300781 C 39.859375 89.761719 40.761719 90 41.699219 90 C 42.839844 90 43.921875 89.640625 44.820312 88.980469 C 44.960938 88.878906 45.078125 88.78125 45.199219 88.679688 C 45.320312 88.601562 45.421875 88.5 45.519531 88.398438 L 45.601562 88.300781 L 58.679688 75.039062 L 96.421875 36.738281 C 98.519531 34.621094 98.519531 31.179688 96.421875 29.058594 Z M 96.421875 29.058594 "/>
</g>
</svg>
